<?xml version="1.0" encoding="utf-8"?>
<!-- Generator: Adobe Illustrator 19.2.0, SVG Export Plug-In . SVG Version: 6.00 Build 0)  -->
<svg version="1.1" id="Layer_1" xmlns="http://www.w3.org/2000/svg" xmlns:xlink="http://www.w3.org/1999/xlink" x="0px" y="0px"
	 viewBox="0 0 416.7 77" style="enable-background:new 0 0 416.7 77;" xml:space="preserve">
<style type="text/css">
	.st0{fill:#454545;}
</style>
<g>
	<polygon class="st0" points="238,55.7 234.3,55.7 236.2,52.2 	"/>
	<polygon class="st0" points="211.4,5.7 184.8,55.7 178.6,55.7 208.3,0 	"/>
	<polygon class="st0" points="195.9,55.7 217,16.2 213.9,10.4 189.8,55.7 	"/>
	<polygon class="st0" points="222.5,26.6 207,55.7 200.9,55.7 219.5,20.9 	"/>
	<polygon class="st0" points="218.2,55.7 228.1,37.1 225,31.3 212.1,55.7 	"/>
	<polygon class="st0" points="229.3,55.7 233.7,47.5 230.6,41.8 223.2,55.7 	"/>
	<g>
		<path class="st0" d="M183,60.8v12.5h-0.7v-8.1h-1.5v8.1H180V60.8c0-0.8,0.6-1.5,1.5-1.5C182.3,59.4,183,59.9,183,60.8z
			 M182.2,64.5v-3.7c0-0.4-0.3-0.7-0.7-0.7c-0.4,0-0.7,0.3-0.7,0.7v3.7H182.2z"/>
		<path class="st0" d="M190.8,72.6v0.7h-2.9V59.5h0.7v13.1H190.8z"/>
		<path class="st0" d="M198.4,64.5v0.7h-2.2v7.3h2.2v0.7h-2.9V59.5h2.9v0.7h-2.2v4.3H198.4z"/>
		<path class="st0" d="M205.6,64.9c0.3,0.3,0.5,0.7,0.5,1.1v7.4h-0.7V66c0-0.4-0.3-0.7-0.7-0.7c-0.4,0-0.7,0.3-0.7,0.7v7.4h-0.7V66
			c0-0.4,0.2-0.8,0.5-1.1c-0.3-0.3-0.5-0.6-0.5-1.1v-4.3h0.7v4.3c0,0.4,0.3,0.7,0.7,0.7c0.4,0,0.7-0.3,0.7-0.7v-4.3h0.7v4.3
			C206.1,64.2,205.9,64.6,205.6,64.9z"/>
		<path class="st0" d="M214,60.8v12.5h-0.7v-8.1h-1.5v8.1h-0.7V60.8c0-0.8,0.6-1.5,1.5-1.5C213.3,59.4,214,59.9,214,60.8z
			 M213.3,64.5v-3.7c0-0.4-0.3-0.7-0.7-0.7c-0.4,0-0.7,0.3-0.7,0.7v3.7H213.3z"/>
		<path class="st0" d="M221.9,66v7.3h-0.7V66c0-0.4-0.3-0.7-0.7-0.7h-0.7v8.1H219V59.5h1.5c0.9,0,1.5,0.6,1.5,1.5v2.9
			c0,0.4-0.2,0.8-0.5,1.1C221.8,65.1,221.9,65.6,221.9,66z M220.5,64.5c0.4,0,0.7-0.3,0.7-0.7v-2.9c0-0.4-0.3-0.7-0.7-0.7h-0.7v4.3
			H220.5z"/>
		<path class="st0" d="M229.8,60.8v12.5h-0.7v-8.1h-1.5v8.1h-0.7V60.8c0-0.8,0.6-1.5,1.5-1.5C229.2,59.4,229.8,59.9,229.8,60.8z
			 M229.1,64.5v-3.7c0-0.4-0.3-0.7-0.7-0.7c-0.4,0-0.7,0.3-0.7,0.7v3.7H229.1z"/>
		<path class="st0" d="M237.7,64.5v0.7h-2.2v7.3h2.2v0.7h-2.9V59.5h2.9v0.7h-2.2v4.3H237.7z"/>
	</g>
</g>
</svg>
