<?xml version="1.0" encoding="utf-8"?>
<!-- Generator: Adobe Illustrator 19.2.0, SVG Export Plug-In . SVG Version: 6.00 Build 0)  -->
<svg version="1.1" id="Layer_1" xmlns="http://www.w3.org/2000/svg" xmlns:xlink="http://www.w3.org/1999/xlink" x="0px" y="0px"
	 viewBox="0 0 458 148.5" style="enable-background:new 0 0 458 148.5;" xml:space="preserve">
<style type="text/css">
	.st0{opacity:0.15;fill:none;stroke:#FFFFFF;stroke-width:10;stroke-miterlimit:10;}
	.st1{opacity:0.15;}
	.st2{fill:#FFFFFF;}
	.st3{fill:none;stroke:#FFFFFF;stroke-width:4;stroke-miterlimit:10;}
</style>
<circle class="st0" cx="228.4" cy="74.2" r="62.9"/>
<g class="st1">
	<polygon class="st2" points="272.7,103.9 267.2,103.9 270,98.7 	"/>
	<polygon class="st2" points="233.1,29.4 193.4,103.9 184.2,103.9 228.4,20.9 	"/>
	<polygon class="st2" points="210,103.9 241.4,45 236.8,36.4 200.9,103.9 	"/>
	<polygon class="st2" points="249.6,60.5 226.5,103.9 217.4,103.9 245.1,52 	"/>
	<polygon class="st2" points="243.2,103.9 258,76.2 253.3,67.5 234.1,103.9 	"/>
	<polygon class="st2" points="259.8,103.9 266.3,91.7 261.7,83.2 250.7,103.9 	"/>
</g>
<rect x="12.2" y="3.3" class="st3" width="433.6" height="141.5"/>
<g>
	<path class="st2" d="M141.3,38.6V119h-4.8V67.1h-9.4v51.8h-4.8V38.6c0-5,4.2-9.4,9.4-9.4C136.9,29.1,141.3,32.9,141.3,38.6z
		 M136.5,62.3V38.6c0-2.6-2.1-4.7-4.8-4.7c-2.6,0-4.7,2.1-4.7,4.7v23.8L136.5,62.3L136.5,62.3z"/>
	<path class="st2" d="M190.2,114.1v4.8h-18.9V29.8h4.7v84.4L190.2,114.1L190.2,114.1z"/>
	<path class="st2" d="M237.8,62.2V67h-14.2v47.2h14.2v4.8H219V29.8h18.9v4.8h-14.2v27.7L237.8,62.2L237.8,62.2z"/>
	<path class="st2" d="M335.7,38.6V119h-4.8V67.1h-9.4v51.8h-4.8V38.6c0-5,4.2-9.4,9.4-9.4C331.3,29.1,335.7,32.9,335.7,38.6z
		 M330.9,62.3V38.6c0-2.6-2.1-4.7-4.8-4.7c-2.6,0-4.7,2.1-4.7,4.7v23.8L330.9,62.3L330.9,62.3z"/>
	<path class="st2" d="M281.8,64.5c2,1.8,3.2,4.3,3.2,7.1v47.3h-4.7V71.6c0-2.6-2.2-4.7-4.8-4.7c-2.6,0-4.7,2.1-4.7,4.7v47.3H266
		V71.6c0-2.8,1.2-5.3,3.2-7.1c-2-1.7-3.2-4.2-3.2-7V29.8h4.8v27.8c0,2.6,2.1,4.7,4.7,4.7s4.8-2.1,4.8-4.7V29.8h4.7v27.8
		C285,60.4,283.8,62.8,281.8,64.5z"/>
</g>
</svg>
